/* XPM */
static char *result[] = {
/* columns rows colors chars-per-pixel */
"100 100 74 1 ",
"  c #393943",
". c #3A3A43",
"X c #3A3B44",
"o c #3B3B44",
"O c #3B3C45",
"+ c #3C3C45",
"@ c #3D3D46",
"# c #3C3D46",
"$ c #393A43",
"% c #393942",
"& c #383942",
"* c #383841",
"= c #373841",
"- c #373740",
"; c #3E3E47",
": c #3D3E47",
"> c #3F3F48",
", c #3C3C46",
"< c #3E3F48",
"1 c #404049",
"2 c #40414A",
"3 c #3B3B45",
"4 c #41424B",
"5 c #42434C",
"6 c #42424B",
"7 c #41414A",
"8 c #3F4049",
"9 c #383842",
"0 c #363740",
"q c #3D3D47",
"w c #3E3E48",
"e c #40404A",
"r c #36363F",
"t c #35353E",
"y c #3F3F49",
"u c #35353F",
"i c #34343D",
"p c #32323B",
"a c #32333C",
"s c #35363F",
"d c #33333C",
"f c #2F3039",
"g c #303039",
"h c #34353E",
"j c #363640",
"k c #31313A",
"l c #31323B",
"z c #3A3B43",
"x c #3B3A43",
"c c #373741",
"v c #41414B",
"b c #33343D",
"n c #3A3A44",
"m c #42424C",
"M c #43434C",
"N c #34343E",
"B c #44444D",
"V c #43434D",
"C c #44454E",
"Z c #46464F",
"A c #464750",
"S c #33333D",
"D c #31313B",
"F c #45454E",
"G c #3D3E46",
"H c #43444D",
"J c #393A42",
"K c #45464F",
"L c #474750",
"P c #45454F",
"I c #43444C",
"U c #3C3B45",
"Y c #373840",
"T c white",
/* pixels */
" .XXXXoooooooO++++++++++@@#+o.$%&**=--=**%%$.X+@;:@@@@#++OooX.....%%$XO++++++++++++++++++++.*--=*.o+",
"&%.......XoooO+++##@@@@:;>;@,o.$%&*=-=*%%.XoO+@;<;;::@@#+OoX..$%%%&*%.oOOOOOOOOOOOOOOOOOOOOX$%%%%..o",
"=*%%%%%$..XooO+#@@@:::;>121>;@o.$%**=*&$Xo,@:;<>>><;;:@#+3o..$%%&*=-* oooooooooooooooooooooooooX...$",
"-=****&%%.XooO+@@;;<<<>145678;+o.%&**9 .O@;<8118888><;@#+oX.$%%*=--0-%Xoooooooooooooooooooo+@@@+o.%*",
"*===***&%$.XoO+#q;;<>>>145678;+o$&**=*%.O@w>1e111118>;:@+Oo..%%*=--0-*&%..ooOOOOOOooooooooO+@@,+o.%*",
"o%=--=**&%$.ooO+@@;w<<<8e71>;#o *-000-*%.+@;>8111118><;@@+OX..%&*==--rtr-&.O@@::@@,+OOOO+##+o...%%%&",
";o=0--=**%%$.o3++@:;;;;<>y<:+o%*-rutur-*%o+@;>812118>>;;@@+oo.$%&***-ipat-.+;>88>;:@+O++@:;+%---*&% ",
"2,=r0--=*9%%.XoO++@;;;;;;;@+o%*0stiiitr-*.o+@;>12118>><;;@#OoX.$%%%%-dfgdr%+>17718<:#+,@:;<+*htr-*%.",
"7#=0--==**%%.Xoo++@::;;;;:#OX%=jshiiitr-*.o+@;>12118y><;:@#+oX..%%%%-iklir&o:<12118>;:@@#@@o9r0-=*%$",
"1+*---=**&%$.Xoo++#@::;;:@#Oo%=0sthhhtr-*.o+#:<81118y><;:@#+oo..$%%%*riitr*$o#;>127e1>;#Oo..$ %%%%%%",
"8+*--=***&%..Xoo++#@@:;:@@+Oo%=0rthhtur-*.o+#@w81118y>w;@#++OoX..$%%&=-00--*&z+;876642<#o%=&o,+3X.%*",
">O*-=****%$..Xoo++,@@@:q@@+ox%*-rutttsj-*.oO#@;>8118>>;:@#++OooX..$%%%%%*=--=%o@>75557>+.cs*O;;@+X%*",
";O&***9&%%$..Xoo+++##@@@@@+oo$*=0rssrr-=&.oO#@;>8>>>><;:@#++OOooX....XoX$&***$o@>7666e;O%0h-+><:,o.%",
":o%*&&%%%$...Xoo+++++###@@+oo.%*-0rrr0=*%.oO#@;>>><<;;;q@#+++OOooXX.o+#+o.%&&.o#<ev778:o&ri-+8>;@+X.",
"@o%%%%%$.....Xoo++++++++##+oo.%&*----c*%$.oO+@;<><;;;;:@@#+++++OooooO@;:+o.$%.o#;12e1<#X*tb0+18<:#3X",
"+o.%%%$.....XoooOOOOOO++,#+oo.$%&*===*%%.noO+@:;;;;::::@@##+++++O333+@;@@+++O+#@:<>;@+o%=rh-O<<;@@++",
"OX......nnnXXoooo333333++++ooX..%&999%%..XoO+#@:;::qqq@@@@####,+++++++@@@:;;<;;;:@+o.%%*--0*o@@@@@@:",
"XXXnnXXXXXXXoooooooooooO++OoooX..$%%%$.XXooo++#@@@@@@@@@@@@#########+++#:<87v71>@O.9-r0--=*%.oO+#:w>",
".XooooooooooooooooooooooO+OoooooX.....XoooooO++,@@@@@@@@@@@@@@@@@@@@#+O+;17mM62>#.*jtNtr-&....XO+:>1",
"no++++++OOooooooooXXXXXooOOoooooooooooooooo3OOOO+++++++###@@@@@::;;;@#+@<1v6M6e<+$=riitr-%...$no+:<1",
"XO#@@@##+++OooooooX....Xoo3OOOOO++++++OOOOOOooooooOOOO+++##@@@:;;;;;;@#@>146M41;O%-siitr=%oX.$.o+:<8",
"o+@;;;:@##+O3ooooX......XooO+++++#@@@#+++++OooX..XoooooO++#@@:;;<>>><;@;>276m7>qo&0tiit0*.oo. .o+@;>",
"o#;;;;;:@@,+OooooX..$$$..ooO+++#@@:::@@++++OoX.....XXXoO++#@:;;<>>>>>><>81111>@+.&=0rr0*&.ooXXo++#@;",
"+@<>>><;;@@++ooXX..$%%%$.noO++#@:;;;;;:@#++oo..$$$....oo+#@@;;<>>88111228>;:@+o.%%%**&%%$$.oO+++++++",
"#:>>>>>>w;@#+ooX..$%%&&%$.oO+#@:w>>>>>;:@,+oX..%%%%$..Xo+#@:;<>>811176561;#o$%**&$.XoOoo.$%X#;;@#OX.",
"@;81118>>;:@+OoX.$%%&**&%.XO+@:;>11118>;q#+o..$%%%%%$.Xo+#@;;<>811274MBm1@o%-0rr*$o+@:@+o.%o@><:+o$&",
";>122218><;@+OoX. %&****%.XO+@;>812221><;@+o..%&**&%%.Xo+#q;w>>1127745V6>#.*rsus=%o#;;;q+o.o@;:+o.%=",
">17777218>;@#+oX$%%**==*%.XO+@<>1777721>;@+o..%****&%.Xo+#q;<>8177746657<+$-tttt-%o#w>><;@++@@+o.%*0",
"17v4447e1>;:@+oX %&**--*%.XO#:>12v444728<@+o..&=-=**%.Xo+#@;<>1274666661;o%0hiih0&X@<888>;:@#+o.%*-r",
"7v6666721><:@+oX%&**=--*%.Xo+:>176666471<@+o.$&---=*%$.oO#@;<8174666471<@o%-stht0*$O:<>1111;+.%*=-jr",
"466666v718<:@+oX%&*=--0-&$.o+:>176666471<@+o.%*-0--*&%.X3+@;<81746667>@+oX *-0rr0-*$o#;176M8o-00rrrr",
"m555664728<:@+oX%&*--0r-*%.o+:>e76555671<@+o.%*-r0-=*%$.o+@;<81746657:X$...$%*=-0r0=&X@16CZ7.hbihur0",
"666647721>;:@+oX$&*=-0j-*%.o+@<176666471<@+o.%*-0--=*%$.o+@;<>1e74661#%*%.Xoo.%*-rrj-%+>6CA2%apdbtr-",
"1188>>><;;@#+OoX.%%***==**%$XO#:<y1111><;@+Oo.$%&%%%$.XoO+@:;;>>811e>#. X3+##+Oo.%***&.+;12#=daSit0=",
"q@@@##,+++O3ooX...$%%%%*=-*&%.Xo+#@:;;;:@@#+++ooooooooO++#@@q::;;;<<;#oo+@:;w;;:#OX.%%%%%..*riiitr-*",
"oX.........n....XXX....%=0--=*&%$.Xo+++###@@@@@@@@@@#,###@@@@####@@@##+@:;>811e18;@O.%=rtidbiNtts0-*",
"X.%%%%%%% $....Xooooooo.*--=***&%%$.Xoo3O++,@@q;;;;:q@@@@@@@#++++++++++#@;>8177728<@o%=siaDpitsrr-=*",
"OX%%%%%%%$....XXoooooooX.%%%%%$.$....X..oXoooO+@;;;:q@@@@@@@#+++++++OoXoO#:;>1e718>@+.&-shbbhtsr0-=*",
"@o$%%%%%$....XXoooooooOOooooXoooXX.....$$%%% .O@;;;:q@@@@@@@#+++++++o.%%.o+@;>1111>;#o.%=rutssrj--=*",
"w+.%%%%$.....XoooooooO++#@#+++++ooX..$%%&****&X#;;;:q@@@@@@@#+++++++o%=*%.o+@;>1118<q+o.%*-0rrr0--**",
"8@.%%%$$.....Xoooooo3O+#:;;:@@@#+Oo..%%**---0-$#;;;:q@@@@@@@#+++++++o&-0=&.o+@;>>8><;@+oX$%*-j0--=*9",
"2:X$$$$......XoooooOO++@<88><;;@#+o.$%**-0rrur%+;;;:q@@@@@@@#+++++++o*rr0=&.o+@;>>><;;@#+o.%*0--=**&",
"4wo..........Xoooo3O+++:87711y>;@+o.%&*-0rthit*+;;;:q@@@@@@@#+++++++o*tts0=%.O#:;<>><;;:@#+n&--=**&%",
"6<o.........noooooO++++;1777e1>;q+o.%&*-0rthih*+;;;:q@@@@@@@#+++++++o*ttsr=%.o+@:;<>><;;:@@o%==**&%%",
"7;o.........XooooOO++++:y7211>>;@+oX$%*=-jrtts&+;;;:q@@@@@@@#+++++++o&jr0-*%.o+#@:;;;;;:@@@o$**&%%%$",
"2;o....nXXXXooooOO+++++q>111y>w;@+oX.%%*=-jrr0%+;;;:q@@@@@@@#+++++++o%--=*%$XoO+@@:::q@@@@@O.&&%%$$.",
"1@o....XoooooooO+++++++@<88>><;:@+3o.$%%*=---*.#;;;:q@@@@@@@#+++++++o.&*&%$.ooO++#@@@@@@@@@O.%%$....",
";#o....XoooooooO+++++++@:;;;:@@@++ooX...$%%&&%o@;;;:q@@@@@@@#+++++++OoX.XXoOOOOO++++OOOOOOOo.$......",
"@OonnXXooooOOOOO+++,#######++++++OooooooooXXXo+@;;;:q@@@@@@@#+++++++++#######+O3oooX............nnnX",
"oooXXoooooOOOO+++++####+OooooooOooooOO++#####@@:;;;:q@@@@@@@#+++++++#;>>><;;@#+ooX.$%%%%%%%%.XXXXXXo",
"..ooooooo3O+++++++#@@@@+X.$$..XooooO++@@:;;;;;;;;;;:q@@@@@@@#+++++++@>77218<;#OX..%&*==****%.ooooooo",
"%.XooooooO+++++++##@@@@O.%%%%$.XoooO+#@:;;>>>><;;;;:q@@@@@@@#+++++++@865671>;#O.$%&*---====%.O+++++O",
"&$XoooooOO+++#####@@@@@o$***%%..Xoo+#@:;<>>818>;;;;:q@@@@@@@#+++++++@2MBM67>;#o.%*=--0-----%X+++++++",
"* XooooO+++++#@@@@@@@@@o%==**%$.Xoo+#@;<>y81118<;;;:q@@@@@@@#+++++++;7BFB578;+o.&*-0rr0----%o#@@@@@#",
"&$XooooO+++++#@@@@@@@@@O.&&%%..Xoo++@@;;<>>818>;;;;:q@@@@@@@#+++++++:7BBM6e>@+n%*--000-=**&.+@@@@@@@",
"..oooOO++++++#@@@@@@qqq+o...XooOO++#@@:;;;w<>>w;;;;:q@@@@@@@#+++++++@1MM67>;+o.&*-----*%%$.o@;;:q@@@",
"oooo3O+++++++#@@@@@:;;:@++++++,####@@@@@@@@@::;;;;;:q@@@@@@@#+++++++@86671<@3.%*=---=*%.Xo+#:;;;:q@@",
"+OooO+++++++,@@@@@:;;;;;;::@Gq@@@@@@@###+++++#@:;;;:q@@@@@@@#+++++++@>728<@+X$&=---=*%.o+@:;<><;;:@@",
":#OOO+++++++#@@@@::;;;;;>>>>><;;:q@@#++3ooooXo+@;;;:q@@@@@@@#+++++++@;8>;@+X%&*----*%.O@;<y8y>><;;:@",
">q+O++++++,#@@@@::;;;;;>122e18>>;;@@,+o...$%%$o@;;;:q@@@@@@@#++++++++@;;@+X *=-0---&.o@w827718>><;;@",
"1;#+++++++#@@@@@:;;;;;;>7664721><;@@+o.%%&**=*.#:;;:@@@@@@@@#++++++++#@,o.%*--jr0-=%o#;176M6718>>;;:",
"1>@####,+#######@@#####;177721>>;:@+Oo.%&**=-=%o+###++++++##+++++++++Oo.$&*-00j0--*$o@;176564718>;@#",
"1>;::;:@@##+++++oooxxxo+;88><<;:@#+Oo.$%&***==&%.XXX.nXXooO++++++##@+.9*--0rrr0-=*%.O#;>12766671>:+o",
"18>>>><;:@#++OoX.$%***&.+;:@@@@#++ooX. %&****====***&%%$..ooO+++#@@@+%rtttttsr-=*%$XO+@;>y175V67>@o$",
"888888>;;@++OoX.%%*----%o@#+++++Ooo..$%%&*****-00--=***&%$.ooO++#@@:O*hbiihttj-*&%.X3+#@;;<16H57>@o&",
";<>>>><;:@++OoX.$%&****%o@#++++OOoX..$%%&*****=--=***&%%%$.XooO+++#@O&rtusrrr-**%%$.XoO++#@<76v1>@o%",
"#:w<;;;:@@++OoX.. %%&9&$O@#++++OOoX..$%%&*********&%%%%%$...XooOOO++o%-0----c**&%%%$..nXooo@>21>;#o.",
"o+;;:@@@@#++OoX...$$%%%.O@#++++OOoX..$%%&******&%%$$$$$.....nXooooooX$&*&&**&&&%%%%%%%%$%%$o:>><;#OX",
".o#@####+++OOoooX......o+@#++++OOoX..$%%&*****&$..............Xn..........$$%%%%%%%%&&9****.+;;:@#+o",
"&.oOooooooo33OOOOOOOOOo+#@@#+++OOoX..$%%%&**** XoOOooooX.....$%%%%%%$.oooooo..$%%%%9**=----%o@@@@###",
"=%...XXXXooooO+++++++#@@@@@@#++OOoX..$%%%%&***.O##+++OooXn..$%&*****%n+@@#+OoX.$%%%*=-0rrrr=.O++#@@@",
"-*&% .....XooO+,@@@@@:;:@@@@@#++OooX..%%%%%&*%X@;:@@#+OooX..%9*-----*X@:::@+Oon.$%%*=-rstts-%oO++@@;",
"-=*&&%% $.XooO+#@@:;;;<;:@@@@#,++ooX..$%%%%&*%o@w;;:@#+OoX.$%*=-0rrr-.#@@@#+Oon.$ %**-0rrrr=.O+,#@@:",
"==****&%%.XooO+#@;;<>>><;:@@@@#,+OooX..$%%%%& o;>>><;@#Oo..%&*-0rsut0%+@@#+Ooo...$%%**--00-&o#@@@@@@",
"**----**%.nooO+@:;>8888><;:@@@@#++OooX..$%%%%.+;888><;@+o.$%*=-rsthhr&o++++ooX....$%%9**==* O:::::@@",
"%*----=*%$nooO+@:w>8111><;:@@@@##+O3oX..$%%%%.+<1118>;@+o.$%*--rtthit*.ooooX.........$%%%% o@>><;:@#",
"o%=---=*%$nooO+@:w>8111><;::@@@##+O3oX...$%%%.+<111y>;@+o.$%*--rtthit-&%%$$$$$.....Xooooooo@>721>;@+",
"#.*---=*%$nooO+@:w>8111><;;::@@##+O3oX....$%%.+<111y>;@+o.$%*--rtthihr-=***&&%$..nooO+++#@@>75671;+o",
";o*---=*%$nooO+@:;>8111><;;;;:@@#++3oo.....$%.+<111><;@+o.$%*=-rsthihtrr0--=*&J..Xo+#@:;;<>2MBM62;+.",
"<O&==**%%.XooO+@@;;>>>>><;;;;:@@#++OooX....$ .+;>>><;:@+o..%&*-0rutttttsrr--=&%.XoO+@;;<>814BFB52;+.",
">+%**&%%$.XooO+#@:;;w<><<<;;;::@@#++OooX....$.+:<<;;@@+OoX. %*--0rrssttttrr--*%.Xo+#:w>81125CZCM7;+.",
"1@$%% $...XooO+#@@@@:;;w<<w;;;;:@@#++OooX.....O@;;:@#++3oX.$%*=---0jrthhttr0-*%.Xo+@;>81274MKLPI7;U$",
"1@X...XXXXoooO++++++#@@;w><;;;;::@#,+OooX.....o#@@#++O3oon..%%**====-rtttsr-=*%.oO+@;>81274MFAFM7w+.",
"1;+ooooooooo3OOOOOOOOO+@;><<;;;::@#,+OooXX....XoOOOOoooXX...$%%%%&&&*-jr00-=*%.noO+@:;<>8116BKCM7>#o",
">;@+++++++OOOoooooooXXX+:>><<;;::@#,+OooooX......XoXXX..............%&===**&%$.XoO+#@:;;;<>7MCH67>@O",
"<;;:@@@@@#++OooX.....%%o@>>>><;::@#,+OoooooX..$%%$...........XooooooX.%%%%%$..XooO++#@@@@:;86M542>:#",
":;;;;;:@@#++OoX..$%%%&&X@>>>><;::@#,+OoooooX..%&*&%%%%$$$...XooooOOOOooXXXXooooooOO++++O++,;16471>;@",
"#:<>><;;q@++OoX.$%%****.@>>>><;::@#,+OoooooX..%*Y***&%%%%$.XooOO+++####@++++++OO33oooX....o,<1e18><;",
"o@>888>;:@++OoX.%%*=--=$#>>>><;::@#,+OoooooX..*-0--=**9%%$.ooO++##@@;;><<;;:@@+OOoo..%%%%&%o@<>>>>><",
"o@y11y<;@#+OOOoo.$%*=-=$#>>>><;::@#,+OoooXX..$%*==******&%..XoO+#@q;;>88>>w;:@+Ooon$%&***==%o+@:;;>>",
"O;11>w@+oooo+#@@@+o.%**.@>>>><;::@#,+OoX....$$.....$%%****&% .no+@@;<>>>><;:@#+Oo..%%**==--**%.o+@;>",
"#<21<@+.%$.o+:<>y>:+X%*.@y>>><;::@#,+Oo...$$%$o#@#+o.$&*---=*&%XO#@;<<<<;;:@#+OoX.%%**=---0rrr-%n+;>",
"@>71;,X%*& o,w17478;+.%X:88>><;;:@@,+Oo.. %%%.+<8<;#3.%=0jj0-*%.o+@<<;;;;;@#+Ooo.$%&**=--0rtibt-%oq>",
":>18;+o.%%.o#;>121>;+o.+<22118>>w;:@@+OoX..$$.+;<;@,Oo.%*c=**%$XO#@;;@@###+OoooX.$%%%&&**=crtNs-%o@>",
";;<;@#+ooooO#@;;;;:@++O@144772118>>;:@#++oooXoo++++OooX....Xooo++#@:@+oXXXX............$$.$&-0=&.O@;",
"<;@@@@@@@######+++++##@>7MMm64v72e1><;:@@#++OooX..XoooOO+++#@@@@@@@@#o %%%%%$$...nXooooooOOX %%.XO#q",
">:++#@:;;;:@#+OoXXo+#:;14MM5m647721><;;:@@#++o.&*&%$XO+#@q;;;;;:@@@#O.*===**&%$..XoO++++#@@#OoooO++@",
"y@oo+@;>8><:#o.$%$.o#;>1766477218><;:@@#+OooX.*rsr-*%o+#:;>>>><;@@#+o%-rr0--*&%$.oO+#@@@:;;;@##,++++",
"8#..O@>17e8;#n%9**$o#<12222e118><;@@++OooX..$&rbditr*.O#;>1e18>;@@++.=ttttrj-=&%.o++@:;<>>y>>w;;:#+O",
"1+&%O:>7671<#.*-0-%X@>7718y>>>w;@#++ooX..$%%9-hlgldh-%o@<827718<@#+o.-ibiitsr-*%.o+@q;<>11ee118>;@+o"
};
